<svg id="Layer_1" data-name="Layer 1" xmlns="http://www.w3.org/2000/svg" viewBox="0 0 183.79 135.35"><defs><style>.cls-1{fill:#fdb614;}.cls-2{fill:#f8d57e;}.cls-2,.cls-3,.cls-4,.cls-5{stroke:#fdb614;}.cls-2,.cls-5{stroke-miterlimit:10;}.cls-3,.cls-4,.cls-5,.cls-8{fill:#fff;}.cls-3{stroke-miterlimit:10;}.cls-4{stroke-miterlimit:10;}.cls-6{opacity:0.5;}.cls-7{isolation:isolate;}</style></defs><g id="Layer_2" data-name="Layer 2"><g id="Layer_1-2" data-name="Layer 1-2"><path class="cls-1" d="M154.59,123h-128a24,24,0,0,1-15.87-6l-5.2-4.58v5.76a12,12,0,0,0,12,12H163.66a12,12,0,0,0,12-12v-5.76l-5.2,4.58A24,24,0,0,1,154.59,123Z" transform="translate(0 0.01)"/><rect class="cls-2" x="5.5" y="15.55" width="170.16" height="114.26" rx="12"/><path class="cls-2" d="M175.66,28.89V18a12,12,0,0,0-12-12H102.58A11.82,11.82,0,0,0,90.74,16" transform="translate(0 0.01)"/><path class="cls-1" d="M154.59,123h-128a24,24,0,0,1-15.87-6l-5.2-4.58v5.76a12,12,0,0,0,12,12H163.66a12,12,0,0,0,12-12v-5.76l-5.2,4.58A24,24,0,0,1,154.59,123Z" transform="translate(0 0.01)"/><rect class="cls-3" x="6.97" y="14.81" width="165.97" height="66.51" rx="12" transform="matrix(1, -0.03, 0.03, 1, -1.61, 3.14)"/><rect class="cls-4" x="35.34" y="-17.41" width="114.26" height="170.16" rx="12" transform="translate(12.21 149.45) rotate(-81.73)"/><rect class="cls-5" x="3.52" y="17.46" width="170.16" height="114.26" rx="12"/><rect class="cls-2" x="0.5" y="20.55" width="170.16" height="114.26" rx="12"/><g class="cls-6"><g class="cls-7"><g class="cls-7"><path class="cls-1" d="M22.3,91V67.58h8.05a9.81,9.81,0,0,1,6,1.59,5.62,5.62,0,0,1,2.08,4.76,5.08,5.08,0,0,1-.87,2.9,5.67,5.67,0,0,1-2.54,2A5.21,5.21,0,0,1,38,80.77a5.66,5.66,0,0,1,1,3.42,6.26,6.26,0,0,1-2.12,5.08A9.25,9.25,0,0,1,30.86,91Zm4.08-13.58h4a4.57,4.57,0,0,0,3-.87,3,3,0,0,0,1.07-2.44,3,3,0,0,0-1-2.51,5,5,0,0,0-3.08-.77h-4Zm0,3v7.34h4.53a4.36,4.36,0,0,0,3-1A3.32,3.32,0,0,0,35,84.19c0-2.44-1.25-3.68-3.74-3.74Z" transform="translate(0 0.01)"/><path class="cls-1" d="M42.75,69.08a2.09,2.09,0,0,1,.57-1.5,2.54,2.54,0,0,1,3.28,0,2.06,2.06,0,0,1,.58,1.5,2,2,0,0,1-.58,1.47,2.57,2.57,0,0,1-3.28,0A2,2,0,0,1,42.75,69.08Zm4.16,22H43V73.61h3.92Z" transform="translate(0 0.01)"/><path class="cls-1" d="M66.47,82.5A10.45,10.45,0,0,1,64.66,89a5.91,5.91,0,0,1-5,2.4,5.69,5.69,0,0,1-4.77-2.2L54.71,91H51.16V66.29h3.92v9a5.68,5.68,0,0,1,4.56-2,6,6,0,0,1,5,2.37,10.68,10.68,0,0,1,1.82,6.62Zm-3.91-.34a7.42,7.42,0,0,0-1-4.25,3.33,3.33,0,0,0-2.9-1.42,3.64,3.64,0,0,0-3.58,2.22V85.9a3.66,3.66,0,0,0,3.61,2.27,3.3,3.3,0,0,0,2.84-1.37,7.27,7.27,0,0,0,1-4.14Z" transform="translate(0 0.01)"/><path class="cls-1" d="M73.92,91H70V66.29h3.92Z" transform="translate(0 0.01)"/><path class="cls-1" d="M78.19,69.08a2.09,2.09,0,0,1,.57-1.5,2.14,2.14,0,0,1,1.63-.6,2.2,2.2,0,0,1,1.65.6,2.1,2.1,0,0,1,.58,1.5A2,2,0,0,1,82,70.55a2.23,2.23,0,0,1-1.65.59,2.17,2.17,0,0,1-1.63-.59A2,2,0,0,1,78.19,69.08Zm4.15,22H78.43V73.61h3.91Z" transform="translate(0 0.01)"/><path class="cls-1" d="M85.87,82.16a10.28,10.28,0,0,1,1-4.62,7.33,7.33,0,0,1,2.85-3.15A8,8,0,0,1,94,73.28a7.64,7.64,0,0,1,5.73,2.27,9,9,0,0,1,2.38,6v.92a10.4,10.4,0,0,1-1,4.61,7.34,7.34,0,0,1-2.84,3.14A8.1,8.1,0,0,1,94,91.36a7.56,7.56,0,0,1-5.9-2.45,9.43,9.43,0,0,1-2.22-6.56Zm3.92.34a7,7,0,0,0,1.11,4.21,3.87,3.87,0,0,0,6.18,0,7.8,7.8,0,0,0,1.1-4.53A7,7,0,0,0,97.05,78,3.64,3.64,0,0,0,94,76.42a3.57,3.57,0,0,0-3,1.53A7.54,7.54,0,0,0,89.79,82.5Z" transform="translate(0 0.01)"/></g><g class="cls-7"><path class="cls-1" d="M117.72,81.1h-9.44V91h-4.07V67.58h14.9v3.29H108.28v7h9.44Z" transform="translate(0 0.01)"/><path class="cls-1" d="M122,69.08a2.09,2.09,0,0,1,.57-1.5,2.54,2.54,0,0,1,3.28,0,2.06,2.06,0,0,1,.58,1.5,2,2,0,0,1-.58,1.47,2.57,2.57,0,0,1-3.28,0A2,2,0,0,1,122,69.08Zm4.16,22H122.2V73.61h3.92Z" transform="translate(0 0.01)"/><path class="cls-1" d="M134.55,91h-3.92V66.29h3.92Z" transform="translate(0 0.01)"/><path class="cls-1" d="M146.49,91.36a8.12,8.12,0,0,1-6-2.34,8.52,8.52,0,0,1-2.31-6.25v-.48a10.46,10.46,0,0,1,1-4.66,7.65,7.65,0,0,1,2.82-3.2A7.45,7.45,0,0,1,146,73.28a6.86,6.86,0,0,1,5.5,2.27A9.65,9.65,0,0,1,153.48,82v1.58H142.09A5.27,5.27,0,0,0,143.53,87a4.31,4.31,0,0,0,3.18,1.26,5.31,5.31,0,0,0,4.39-2.18l2.11,2a7,7,0,0,1-2.8,2.42A8.65,8.65,0,0,1,146.49,91.36ZM146,76.42a3.31,3.31,0,0,0-2.6,1.13,5.83,5.83,0,0,0-1.27,3.15h7.46v-.29a4.73,4.73,0,0,0-1-3A3.31,3.31,0,0,0,146,76.42Z" transform="translate(0 0.01)"/></g></g></g><g class="cls-7"><g class="cls-7"><path class="cls-8" d="M20.3,89V65.58h8.05a9.81,9.81,0,0,1,6,1.59,5.62,5.62,0,0,1,2.08,4.76,5.08,5.08,0,0,1-.87,2.9,5.67,5.67,0,0,1-2.54,2A5.21,5.21,0,0,1,36,78.77a5.66,5.66,0,0,1,1,3.42,6.26,6.26,0,0,1-2.12,5.08A9.25,9.25,0,0,1,28.86,89Zm4.08-13.58h4a4.57,4.57,0,0,0,3-.87,3,3,0,0,0,1.07-2.44,3,3,0,0,0-1-2.51,5,5,0,0,0-3.08-.77h-4Zm0,3v7.34h4.53a4.36,4.36,0,0,0,3-1A3.32,3.32,0,0,0,33,82.19c0-2.44-1.25-3.68-3.74-3.74Z" transform="translate(0 0.01)"/><path class="cls-8" d="M40.75,67.08a2.09,2.09,0,0,1,.57-1.5,2.54,2.54,0,0,1,3.28,0,2.06,2.06,0,0,1,.58,1.5,2,2,0,0,1-.58,1.47,2.57,2.57,0,0,1-3.28,0A2,2,0,0,1,40.75,67.08Zm4.16,22H41V71.61h3.92Z" transform="translate(0 0.01)"/><path class="cls-8" d="M64.47,80.5A10.45,10.45,0,0,1,62.66,87a5.91,5.91,0,0,1-5,2.4,5.69,5.69,0,0,1-4.77-2.2L52.71,89H49.16V64.29h3.92v9a5.68,5.68,0,0,1,4.56-2,6,6,0,0,1,5,2.37,10.68,10.68,0,0,1,1.82,6.62Zm-3.91-.34a7.42,7.42,0,0,0-1-4.25,3.33,3.33,0,0,0-2.9-1.42,3.64,3.64,0,0,0-3.58,2.22V83.9a3.66,3.66,0,0,0,3.61,2.27,3.3,3.3,0,0,0,2.84-1.37,7.27,7.27,0,0,0,1-4.14Z" transform="translate(0 0.01)"/><path class="cls-8" d="M71.92,89H68V64.29h3.92Z" transform="translate(0 0.01)"/><path class="cls-8" d="M76.19,67.08a2.09,2.09,0,0,1,.57-1.5,2.14,2.14,0,0,1,1.63-.6,2.2,2.2,0,0,1,1.65.6,2.1,2.1,0,0,1,.58,1.5A2,2,0,0,1,80,68.55a2.23,2.23,0,0,1-1.65.59,2.17,2.17,0,0,1-1.63-.59A2,2,0,0,1,76.19,67.08Zm4.15,22H76.43V71.61h3.91Z" transform="translate(0 0.01)"/><path class="cls-8" d="M83.87,80.16a10.28,10.28,0,0,1,1-4.62,7.33,7.33,0,0,1,2.85-3.15A8,8,0,0,1,92,71.28a7.64,7.64,0,0,1,5.73,2.27,9,9,0,0,1,2.38,6v.92a10.4,10.4,0,0,1-1,4.61,7.34,7.34,0,0,1-2.84,3.14A8.1,8.1,0,0,1,92,89.36a7.56,7.56,0,0,1-5.9-2.45,9.43,9.43,0,0,1-2.22-6.56Zm3.92.34a7,7,0,0,0,1.11,4.21,3.87,3.87,0,0,0,6.18,0,7.8,7.8,0,0,0,1.1-4.53A7,7,0,0,0,95.05,76,3.64,3.64,0,0,0,92,74.42a3.57,3.57,0,0,0-3,1.53A7.54,7.54,0,0,0,87.79,80.5Z" transform="translate(0 0.01)"/></g><g class="cls-7"><path class="cls-8" d="M115.72,79.1h-9.44V89h-4.07V65.58h14.9v3.29H106.28v7h9.44Z" transform="translate(0 0.01)"/><path class="cls-8" d="M120,67.08a2.09,2.09,0,0,1,.57-1.5,2.54,2.54,0,0,1,3.28,0,2.06,2.06,0,0,1,.58,1.5,2,2,0,0,1-.58,1.47,2.57,2.57,0,0,1-3.28,0A2,2,0,0,1,120,67.08Zm4.16,22H120.2V71.61h3.92Z" transform="translate(0 0.01)"/><path class="cls-8" d="M132.55,89h-3.92V64.29h3.92Z" transform="translate(0 0.01)"/><path class="cls-8" d="M144.49,89.36a8.12,8.12,0,0,1-6-2.34,8.52,8.52,0,0,1-2.31-6.25v-.48a10.46,10.46,0,0,1,1-4.66,7.65,7.65,0,0,1,2.82-3.2A7.45,7.45,0,0,1,144,71.28a6.86,6.86,0,0,1,5.5,2.27A9.65,9.65,0,0,1,151.48,80v1.58H140.09A5.27,5.27,0,0,0,141.53,85a4.31,4.31,0,0,0,3.18,1.26,5.31,5.31,0,0,0,4.39-2.18l2.11,2a7,7,0,0,1-2.8,2.42A8.65,8.65,0,0,1,144.49,89.36ZM144,74.42a3.31,3.31,0,0,0-2.6,1.13,5.83,5.83,0,0,0-1.27,3.15h7.46v-.29a4.73,4.73,0,0,0-1-3A3.31,3.31,0,0,0,144,74.42Z" transform="translate(0 0.01)"/></g></g><path class="cls-1" d="M149.59,127.61h-128a24,24,0,0,1-15.87-6L.5,117v5.77a12,12,0,0,0,12,12H158.66a12,12,0,0,0,12-12V117l-5.2,4.59A24,24,0,0,1,149.59,127.61Z" transform="translate(0 0.01)"/></g></g></svg>