<svg width="37" height="38" viewBox="0 0 37 38" fill="none" xmlns="http://www.w3.org/2000/svg">
<path fill-rule="evenodd" clip-rule="evenodd" d="M0.625 3.72996C0.625 2.91752 0.939675 2.13835 1.4998 1.56386C2.05992 0.989373 2.81962 0.66663 3.61175 0.66663H33.385C33.7776 0.665972 34.1664 0.744735 34.5292 0.898408C34.8921 1.05208 35.2218 1.27765 35.4995 1.56219C35.7773 1.84673 35.9975 2.18467 36.1478 2.55665C36.298 2.92862 36.3752 3.32734 36.375 3.72996V34.2666C36.3754 34.6693 36.2984 35.0682 36.1484 35.4403C35.9984 35.8125 35.7783 36.1506 35.5008 36.4355C35.2232 36.7203 34.8936 36.9462 34.5309 37.1003C34.1681 37.2543 33.7793 37.3335 33.3866 37.3333H3.61175C3.21939 37.3333 2.83087 37.254 2.4684 37.1C2.10592 36.9459 1.77659 36.7201 1.49922 36.4355C1.22186 36.1508 1.00189 35.8129 0.851887 35.4411C0.701884 35.0692 0.624787 34.6707 0.625 34.2683V3.72996ZM14.7755 14.6466H19.6164V17.14C20.3151 15.7066 22.1026 14.4166 24.7887 14.4166C29.9384 14.4166 31.1588 17.2716 31.1588 22.51V32.2133H25.9474V23.7033C25.9474 20.72 25.2486 19.0366 23.4741 19.0366C21.0122 19.0366 19.9885 20.8516 19.9885 23.7033V32.2133H14.7755V14.6466ZM5.838 31.985H11.051V14.4166H5.838V31.9833V31.985ZM11.7969 8.68663C11.8067 9.14442 11.7273 9.59961 11.5633 10.0255C11.3992 10.4514 11.1539 10.8394 10.8418 11.1667C10.5296 11.494 10.1568 11.7541 9.74524 11.9316C9.33372 12.1092 8.89176 12.2007 8.44531 12.2007C7.99886 12.2007 7.55691 12.1092 7.14539 11.9316C6.73387 11.7541 6.36107 11.494 6.04887 11.1667C5.73668 10.8394 5.49138 10.4514 5.32736 10.0255C5.16335 9.59961 5.08392 9.14442 5.09375 8.68663C5.11304 7.78805 5.47463 6.93295 6.10106 6.30444C6.7275 5.67593 7.56899 5.32399 8.44531 5.32399C9.32164 5.32399 10.1631 5.67593 10.7896 6.30444C11.416 6.93295 11.7776 7.78805 11.7969 8.68663V8.68663Z" fill="white"/>
</svg>
