<svg width="37" height="38" viewBox="0 0 37 38" fill="none" xmlns="http://www.w3.org/2000/svg">
<path d="M3.96429 0.625C1.77567 0.625 0 2.38867 0 4.5625V33.4375C0 35.6113 1.77567 37.375 3.96429 37.375H33.0357C35.2243 37.375 37 35.6113 37 33.4375V4.5625C37 2.38867 35.2243 0.625 33.0357 0.625H3.96429ZM12.1307 11.5544C13.7524 11.5544 15.1933 12.1113 16.2543 12.9465C17.2355 13.7219 17.695 14.4975 18.0959 15.1936L15.2942 16.5839C15.0938 16.1274 14.8526 15.6498 14.2333 15.1335C13.5521 14.596 12.8724 14.4375 12.2904 14.4375C10.0088 14.4375 8.80765 16.5451 8.80765 18.8907C8.80765 21.9729 10.3901 23.5025 12.2904 23.5025C14.1322 23.5025 14.8737 22.2302 15.3529 21.4161L18.1366 22.8276C17.6151 23.6418 17.1146 24.4383 15.9934 25.2121C15.3937 25.6297 14.0132 26.4456 12.0509 26.4456C8.30733 26.4456 5.28571 23.7422 5.28571 18.9893C5.28571 14.8356 8.12802 11.5543 12.1307 11.5543V11.5544ZM18.3648 11.9914H22.128L25.0502 21.9728L27.9511 11.9914H31.7143L26.8102 26.0279H23.2084L18.3648 11.9915V11.9914Z" fill="white"/>
</svg>
