<svg width="36" height="36" viewBox="0 0 36 36" fill="none" xmlns="http://www.w3.org/2000/svg">
<path d="M34.013 0H1.987C1.46002 0 0.954614 0.209344 0.581979 0.581979C0.209344 0.954614 0 1.46002 0 1.987V34.0135C0.000132586 34.5404 0.209535 35.0457 0.582156 35.4182C0.954776 35.7907 1.4601 36 1.987 36H19.2285V22.059H14.537V16.626H19.2285V12.619C19.2285 7.969 22.0685 5.4375 26.2165 5.4375C28.2035 5.4375 29.911 5.585 30.409 5.6515V10.511L27.532 10.5125C25.276 10.5125 24.8395 11.5845 24.8395 13.1575V16.6265H30.2195L29.519 22.0595H24.8395V36H34.0135C34.5404 35.9999 35.0457 35.7905 35.4182 35.4178C35.7907 35.0452 36 34.5399 36 34.013V1.987C36 1.46002 35.7907 0.954614 35.418 0.581979C35.0454 0.209344 34.54 0 34.013 0V0Z" fill="white"/>
</svg>
